<svg width="32" height="32" viewBox="0 0 32 32" fill="none" xmlns="http://www.w3.org/2000/svg">
<path d="M13.5 2C13.8978 2 14.2793 2.15804 14.5606 2.43934C14.8419 2.72064 15 3.10218 15 3.5V16C15 16.2652 15.1053 16.5196 15.2929 16.7071C15.4804 16.8946 15.7348 17 16 17C16.2652 17 16.5195 16.8946 16.7071 16.7071C16.8946 16.5196 17 16.2652 17 16V10.934L17.172 10.926C17.806 10.902 18.446 10.91 18.804 10.98C19.072 11.034 19.392 11.172 19.7 11.344C19.854 11.428 20 11.638 20 11.972V16C20 16.2652 20.1053 16.5196 20.2929 16.7071C20.4804 16.8946 20.7348 17 21 17C21.2652 17 21.5195 16.8946 21.7071 16.7071C21.8946 16.5196 22 16.2652 22 16V12.87C22.0706 12.8626 22.1412 12.8559 22.212 12.85C22.844 12.802 23.38 12.83 23.628 12.93C23.864 13.022 24.228 13.344 24.6 13.79C24.762 13.982 24.9 14.17 25 14.308V17C25 17.2652 25.1053 17.5196 25.2929 17.7071C25.4804 17.8946 25.7348 18 26 18C26.2652 18 26.5195 17.8946 26.7071 17.7071C26.8946 17.5196 27 17.2652 27 17V15H27.684C27.9635 15 28.2399 15.0586 28.4954 15.172C28.7508 15.2854 28.9797 15.4511 29.1672 15.6583C29.3547 15.8656 29.4967 16.1099 29.584 16.3755C29.6713 16.641 29.7019 16.9219 29.674 17.2L29.132 22.63C29.062 23.3278 28.846 24.0031 28.498 24.612L25.708 29.496C25.6205 29.6491 25.4942 29.7763 25.3418 29.8648C25.1894 29.9533 25.0162 29.9999 24.84 30H12.07C11.9053 29.9999 11.7432 29.9592 11.598 29.8814C11.4529 29.8035 11.3292 29.6911 11.238 29.554L8.37197 25.254C8.10586 24.8552 7.93921 24.3985 7.88597 23.922L7.19597 17.712C7.16808 17.4631 7.2346 17.2128 7.38236 17.0106C7.53012 16.8084 7.74838 16.669 7.99397 16.62L9.99997 16.22V18C9.99997 18.2652 10.1053 18.5196 10.2929 18.7071C10.4804 18.8946 10.7348 19 11 19C11.2652 19 11.5195 18.8946 11.7071 18.7071C11.8946 18.5196 12 18.2652 12 18V3.5C12 3.10218 12.158 2.72064 12.4393 2.43934C12.7206 2.15804 13.1021 2 13.5 2ZM17 8.932V3.5C17 2.57174 16.6312 1.6815 15.9748 1.02513C15.3185 0.368749 14.4282 0 13.5 0C12.5717 0 11.6815 0.368749 11.0251 1.02513C10.3687 1.6815 9.99997 2.57174 9.99997 3.5V14.18L7.59997 14.66C6.86432 14.8075 6.21065 15.2253 5.76786 15.831C5.32507 16.4367 5.1253 17.1863 5.20797 17.932L5.89797 24.144C5.9867 24.9381 6.26446 25.6994 6.70797 26.364L9.57397 30.664C9.8479 31.0749 10.219 31.4119 10.6545 31.6449C11.0899 31.878 11.5761 32 12.07 32H24.84C25.3688 31.9998 25.8881 31.8599 26.3454 31.5944C26.8027 31.3288 27.1817 30.9472 27.444 30.488L30.234 25.606C30.7217 24.7526 31.0243 23.8061 31.122 22.828L31.664 17.398C31.7196 16.8419 31.658 16.2804 31.4833 15.7496C31.3086 15.2187 31.0247 14.7304 30.6497 14.316C30.2747 13.9017 29.8171 13.5705 29.3062 13.3438C28.7954 13.1171 28.2428 13 27.684 13H26.522C26.3971 12.8307 26.267 12.6653 26.132 12.504C25.75 12.046 25.112 11.368 24.372 11.072C23.644 10.78 22.68 10.808 22.056 10.856L21.792 10.88C21.579 10.3349 21.1831 9.88098 20.672 9.596C20.2118 9.33063 19.7142 9.13643 19.196 9.02C18.576 8.896 17.718 8.904 17.096 8.928L17 8.932Z" fill="white"/>
</svg>
